<?xml version="1.0" encoding="utf-8"?>
<!-- Generator: Adobe Illustrator 24.3.0, SVG Export Plug-In . SVG Version: 6.00 Build 0)  -->
<svg version="1.1" id="Layer_1" xmlns="http://www.w3.org/2000/svg" xmlns:xlink="http://www.w3.org/1999/xlink" x="0px" y="0px"
	 viewBox="0 0 64 64" enable-background="new 0 0 64 64" xml:space="preserve" width="85px" height="85px">
<path d="M61,57h-4v-2.3c0-3.8-1.4-7.3-4-10.1l0-3.8l0.8-0.2c2.4-0.5,4.7-2.7,5.4-5l1.2-4.4c0.2-0.8,0.1-1.6-0.3-2.3
	c-0.4-0.7-1.1-1.2-1.8-1.4l-0.2,0c-1.6-0.4-3.2,0.6-3.6,2.1c-0.6,2.6-1.1,4.2-3.3,4.9c0.5-0.8,0.7-1.6,0.7-2.6c0-2.8-2.2-5-5-5
	s-5,2.2-5,5c0,0.9,0.3,1.8,0.7,2.6c-2.2-0.7-2.6-2.4-3.3-4.9c-0.4-1.6-2-2.5-3.6-2.1l-0.2,0c-0.8,0.2-1.4,0.7-1.8,1.4
	c-0.4,0.7-0.5,1.5-0.3,2.3l1.2,4.4c0.6,2.3,3,4.5,5.4,5l0.8,0.2v3.8c-2.6,2.7-4,6.3-4,10.1V57H26v-0.3c0-3.8-1.4-7.3-4-10.1v-4.8
	c3.1-0.9,5.5-3.3,6.3-6.4l1.1-4.2c0.2-0.8,0.1-1.6-0.3-2.3c-0.4-0.7-1.1-1.2-1.8-1.4l-0.2,0c-1.6-0.4-3.2,0.6-3.6,2.1
	c-0.6,2.6-1.1,4.2-3.3,4.9c0.5-0.8,0.7-1.6,0.7-2.6c0-2.8-2.2-5-5-5s-5,2.2-5,5c0,1.6,0.8,3,2,4l-0.8,0.3c-1.8,0.6-3.4,1.8-4.5,3.3
	l-2.3,3.2c-0.5,0.7-0.6,1.5-0.5,2.2c0.1,0.8,0.6,1.5,1.3,1.9c1.2,0.8,2.7,0.6,3.7-0.4l2.2-2.2v3.3L7.4,57H3c-0.6,0-1,0.4-1,1v3
	c0,0.6,0.4,1,1,1h58c0.6,0,1-0.4,1-1v-3C62,57.4,61.6,57,61,57z M47,29c1.7,0,3,1.3,3,3s-1.3,3-3,3s-3-1.3-3-3S45.3,29,47,29z
	 M39,54.7c0-3.4,1.3-6.6,3.7-9c0.2-0.2,0.3-0.4,0.3-0.7v-4.2c0-0.9-0.7-1.8-1.6-2l-0.8-0.2c-1.6-0.3-3.4-2-3.8-3.6l-1.2-4.4
	c-0.1-0.2,0-0.5,0.1-0.7c0.1-0.2,0.3-0.4,0.6-0.4l0.2,0c0.5-0.1,1,0.2,1.1,0.7c0.9,3.7,1.7,6.9,8.8,6.9h1.4c7.1,0,7.9-3.2,8.8-6.9
	c0.1-0.5,0.6-0.8,1.1-0.7l0.2,0c0.2,0.1,0.5,0.2,0.6,0.4c0.1,0.2,0.2,0.5,0.1,0.7l-1.2,4.4c-0.4,1.6-2.2,3.3-3.8,3.6l-0.8,0.2
	c-0.9,0.2-1.6,1-1.6,2V45c0,0.3,0.1,0.5,0.3,0.7c2.4,2.4,3.7,5.6,3.7,9V57h-2.2l-1.5-5.4c-0.2-1.5-1.5-2.6-3-2.6h-2.4
	c-1.5,0-2.8,1.1-3,2.6L41.2,57H39V54.7z M50.7,57h-7.3l1.4-5c0,0,0-0.1,0-0.1c0.1-0.5,0.5-0.9,1.1-0.9h2.4c0.5,0,1,0.4,1.1,0.9
	c0,0,0,0.1,0,0.1L50.7,57z M16,29c1.7,0,3,1.3,3,3s-1.3,3-3,3s-3-1.3-3-3S14.3,29,16,29z M13.9,48.4C14,48.3,14,48.2,14,48v-6
	c0-0.4-0.2-0.8-0.6-0.9c-0.4-0.2-0.8-0.1-1.1,0.2l-3.9,3.9c-0.3,0.3-0.8,0.4-1.2,0.1c-0.2-0.1-0.4-0.4-0.4-0.6c0-0.3,0-0.5,0.2-0.7
	l2.3-3.2c0.9-1.2,2.1-2.1,3.5-2.6l3.4-1.1h0.5c7.1,0,7.9-3.2,8.8-6.9c0.1-0.5,0.6-0.8,1.1-0.7l0.2,0c0.2,0.1,0.5,0.2,0.6,0.4
	c0.1,0.2,0.2,0.5,0.1,0.7l-1.1,4.2c-0.7,2.7-2.9,4.7-5.6,5.2c-0.5,0.1-0.8,0.5-0.8,1v6c0,0.3,0.1,0.5,0.3,0.7c2.4,2.4,3.7,5.6,3.7,9
	V57h-2.1l-0.6-4.4c-0.2-1.5-1.5-2.6-3-2.6c-1.1,0-2.1,0.6-2.7,1.5L12.4,57H9.6L13.9,48.4z M19.8,57h-5.1l2.5-4.5
	c0.2-0.3,0.5-0.5,0.9-0.5c0.5,0,1,0.4,1.1,0.9L19.8,57z M60,60H4v-1h56V60z"/>
<path d="M31,2v2.1c-3.9,0.5-7,3.9-7,7.9c0,4.4,3.6,8,8,8s8-3.6,8-8c0-4.1-3.1-7.4-7-7.9V2H31z M38,12c0,3.3-2.7,6-6,6s-6-2.7-6-6
	s2.7-6,6-6S38,8.7,38,12z"/>
<rect x="43" y="17" width="2" height="2"/>
<rect x="41" y="19" width="2" height="2"/>
<rect x="45" y="19" width="2" height="2"/>
<rect x="43" y="21" width="2" height="2"/>
<path d="M27.6,10.1l-1,1.7C28,12.6,29.7,13,32,13s4-0.4,5.4-1.1l-1-1.7c-1,0.6-2.5,0.9-4.4,0.9S28.6,10.7,27.6,10.1z"/>
<path d="M30.4,7.1l-0.9,1.8c0.8,0.4,1.6,0.6,2.4,0.6s1.7-0.2,2.4-0.6l-0.9-1.8C32.6,7.6,31.4,7.6,30.4,7.1z"/>
<path d="M30.4,14.6l-0.9,1.8c0.8,0.4,1.6,0.6,2.4,0.6s1.7-0.2,2.4-0.6l-0.9-1.8C32.6,15.1,31.4,15.1,30.4,14.6z"/>
<rect x="19" y="4" width="2" height="2"/>
<rect x="17" y="6" width="2" height="2"/>
<rect x="21" y="6" width="2" height="2"/>
<rect x="19" y="8" width="2" height="2"/>
<rect x="58" y="9" width="2" height="2"/>
<rect x="56" y="11" width="2" height="2"/>
<rect x="60" y="11" width="2" height="2"/>
<rect x="58" y="13" width="2" height="2"/>
<rect x="4" y="21" width="2" height="2"/>
<rect x="2" y="23" width="2" height="2"/>
<rect x="6" y="23" width="2" height="2"/>
<rect x="4" y="25" width="2" height="2"/>
</svg>
