<?xml version="1.0" encoding="UTF-8" standalone="no"?>
<svg height="85px" viewBox="-95 -17 554 554.66669" width="85px" xmlns="http://www.w3.org/2000/svg"><path d="m360.089844 31.25c0-6.210938-5.035156-11.25-11.25-11.25h-53.671875v-8.75c0-6.210938-5.039063-11.25-11.25-11.25h-62.5c-6.210938 0-11.25 5.039062-11.25 11.25v8.75h-63.75c-20.011719.023438-36.226563 16.242188-36.25 36.25v362.5c-.011719 7.59375-6.160157 13.742188-13.75 13.75h-18.046875c-4.882813-14.898438-18.777344-24.980469-34.453125-25h-37.5c-6.210938 0-11.25 5.039062-11.25 11.25v50c0 6.210938 5.039062 11.25 11.25 11.25h37.5c15.675781-.019531 29.570312-10.101562 34.453125-25h18.046875c20.007812-.023438 36.222656-16.242188 36.25-36.25v-362.5c.007812-7.585938 6.160156-13.742188 13.75-13.75h63.75v26.519531c-37.964844 16.839844-62.457031 54.453125-62.5 95.980469v318.75c.023437 20.007812 16.238281 36.226562 36.25 36.25h137.5c20.007812-.023438 36.222656-16.242188 36.25-36.25v-318.75c-.046875-41.527344-24.539063-79.140625-62.5-95.980469v-12.535156l13.703125 13.910156c2.117187 2.148438 5 3.355469 8.015625 3.355469h31.953125c6.214844 0 11.25-5.039062 11.25-11.25s-5.035156-11.25-11.25-11.25h-27.253906l-8.621094-8.75h35.875c6.214844 0 11.25-5.039062 11.25-11.25zm-316.171875 426.25h-26.25v-27.5h26.25c7.589843 0 13.75 6.15625 13.75 13.75s-6.160157 13.75-13.75 13.75zm277.5 40h-137.5c-7.589844-.007812-13.742188-6.164062-13.75-13.75v-11.25h165v11.25c-.011719 7.59375-6.160157 13.742188-13.75 13.75zm13.75-91.25h-75.078125v-211.25h75.078125zm0-241.25v7.5h-86.328125c-6.210938 0-11.25 5.039062-11.25 11.25v233.75c0 6.210938 5.039062 11.25 11.25 11.25h86.328125v21.25h-165v-285c0-45.5625 36.9375-82.5 82.5-82.5 45.558593 0 82.5 36.9375 82.5 82.5zm-82.5-105c-6.714844.003906-13.410157.648438-20 1.933594v-39.433594h40v39.433594c-6.59375-1.285156-13.289063-1.929688-20-1.933594zm0 0"/></svg>