<?xml version="1.0" encoding="UTF-8" standalone="no"?> 
<svg version="1.1" viewBox="0 0 16 16" xmlns="http://www.w3.org/2000/svg" xmlns:xlink="http://www.w3.org/1999/xlink" width="85px" height="85px">
<path d="M2,5h1v-2h2v-1h-2v-2h-1v2h-2v1h2Z" transform="translate(2, 5)"></path><path d="M15.916,5.22266l-2,-3c-0.0927734,-0.13916 -0.249023,-0.222656 -0.416016,-0.222656h-0.5c0,-0.552307 -0.447693,-1 -1,-1c-0.552307,0 -1,0.447693 -1,1h-1v-1.5c0,-0.276367 -0.223633,-0.5 -0.5,-0.5h-9c-0.276367,0 -0.5,0.223633 -0.5,0.5v9c0,0.276367 0.223633,0.5 0.5,0.5h0.5c0,1.10303 0.896973,2 2,2c1.10303,0 2,-0.896973 2,-2h6c0,1.10303 0.896973,2 2,2c1.10303,0 2,-0.896973 2,-2h0.5c0.276367,0 0.5,-0.223633 0.5,-0.5v-4c0,-0.0986328 -0.0292969,-0.195312 -0.0839844,-0.277344Zm-12.916,5.77734c-0.55127,0 -1,-0.44873 -1,-1h2c0,0.55127 -0.44873,1 -1,1Zm6,-2h-8v-8h8v8Zm4,2c-0.55127,0 -1,-0.44873 -1,-1h2c0,0.55127 -0.44873,1 -1,1Zm2,-2h-5v-6h3.23242l1.76758,2.65137v3.34863Z" transform="translate(0, 2)"></path></svg>