<?xml version="1.0" ?>
<!DOCTYPE svg  PUBLIC '-//W3C//DTD SVG 1.1//EN'  'http://www.w3.org/Graphics/SVG/1.1/DTD/svg11.dtd'>
<svg enable-background="new 0 0 24 24" height="45px" id="Layer_1" version="1.1" viewBox="0 0 24 24" width="45px" xml:space="preserve" xmlns="http://www.w3.org/2000/svg" xmlns:xlink="http://www.w3.org/1999/xlink">
<g>
<path fill="#F7F7FF" d="M12,1.3c-6,0-10.9,4.5-10.9,10c0,3,1.5,5.9,4,7.8c0.1,0.1,0.2,0.2,0.2,0.4v3.2l2.2-1.2c-0.4-0.2-0.8-0.3-1.1-0.6   c-0.2-0.1-0.3-0.4-0.2-0.7c0.1-0.2,0.4-0.3,0.7-0.2c0.7,0.4,1.4,0.7,2.1,0.9c0.9,0.2,1.9,0.4,2.9,0.4c6,0,10.9-4.5,10.9-10   C22.9,5.8,18,1.3,12,1.3z M13.5,15.3c-0.1,0.1-0.2,0.2-0.4,0.2c0,0,0,0,0,0c-0.1,0-0.3-0.1-0.4-0.2l-2.6-2.8l-5.3,2.9   c-0.1,0-0.2,0.1-0.2,0.1c-0.2,0-0.3-0.1-0.4-0.2c-0.2-0.2-0.1-0.5,0-0.6L10.4,8c0.1-0.1,0.2-0.2,0.4-0.2c0,0,0,0,0,0   c0.1,0,0.3,0.1,0.4,0.2l2.7,2.8l5.2-2.9c0.2-0.1,0.5-0.1,0.6,0.1c0.2,0.2,0.1,0.5,0,0.6L13.5,15.3z"/>
</g>
</svg>